<svg xmlns="http://www.w3.org/2000/svg" width="32" height="32" viewBox="0 0 32 32"><path d="M17.471 2h-8.373c-3.754 0-7.287 2.844-7.287 6.138 0 3.366 2.559 6.083 6.378 6.083.266 0 .524-.005.776-.024-.248.475-.425 1.009-.425 1.564 0 .936.503 1.694 1.14 2.313l-1.452.014c-4.649 0-8.228 2.961-8.228 6.032 0 3.024 3.923 4.916 8.573 4.916 5.301 0 8.228-3.008 8.228-6.032 0-2.425-.715-3.877-2.928-5.442-.757-.536-2.204-1.839-2.204-2.604 0-.897.256-1.34 1.607-2.395 1.385-1.082 2.365-2.603 2.365-4.372 0-2.106-.938-4.159-2.699-4.837h2.655l1.874-1.355zm-2.925 20.483c.066.28.103.569.103.863 0 2.444-1.575 4.353-6.093 4.353-3.214 0-5.535-2.035-5.535-4.478 0-2.395 2.879-4.389 6.093-4.354.75.008 1.449.129 2.083.334 1.745 1.213 2.996 1.899 3.349 3.281zm-5.145-9.115c-2.157-.065-4.207-2.413-4.58-5.246-.372-2.833 1.074-5.001 3.231-4.937 2.157.065 4.207 2.338 4.58 5.171.372 2.833-1.075 5.077-3.231 5.012zm16.599-5.368v-6h-2v6h-6v2h6v6h2v-6h6v-2z"/></svg>