<svg xmlns="http://www.w3.org/2000/svg" width="32" height="32" viewBox="0 0 32 32"><path d="M32 6.076c-1.177.522-2.443.875-3.771 1.034 1.355-.813 2.396-2.099 2.887-3.632-1.269.752-2.674 1.299-4.169 1.593-1.198-1.276-2.904-2.073-4.792-2.073-3.626 0-6.565 2.939-6.565 6.565 0 .515.058 1.016.17 1.496-5.456-.274-10.294-2.888-13.532-6.86-.565.97-.889 2.097-.889 3.301 0 2.278 1.159 4.287 2.921 5.465-1.076-.034-2.088-.329-2.974-.821l-.001.083c0 3.181 2.263 5.834 5.266 6.437-.551.15-1.131.23-1.73.23-.423 0-.834-.041-1.235-.118.835 2.608 3.26 4.506 6.133 4.559-2.247 1.761-5.078 2.81-8.154 2.81-.53 0-1.052-.031-1.566-.092 2.905 1.863 6.356 2.95 10.064 2.95 12.076 0 18.679-10.004 18.679-18.68 0-.285-.006-.568-.019-.849 1.283-.926 2.396-2.082 3.276-3.398z"/></svg>