<svg xmlns="http://www.w3.org/2000/svg" width="274" height="139" viewBox="0 0 274 139">
  <title>Barebones logo</title>
  <linearGradient x1="0%" y1="0%" x2="100%" y2="100%" id="gradient">
    <stop stop-color="#ff00f3" offset="0%"/>
    <stop stop-color="#ff002d" offset="100%"/>
  </linearGradient>
  <path fill="url(#gradient)" d="M184.752 25.693c-4.598-1.699-7.22 1.639-7.893 2.91-1.177 2.222.638 4.487-2.381 6.993-3.019 2.506-4.021 1.852-13.724 2.191-9.703.339-24.354-1.129-24.354-1.129s-11.648-.411-20.138-.9c-8.49-.489-19.604.168-20.583-3.684-1.214-3.227-1.702-2.763-6.025-3.059-2.354.489-4.808.514-4.901 1.395-.682 6.472 1.955 4.854 2.838 9.91-.183 2.988-3.297 3.739-.188 7.939.37.752 3.429.711 5.878.626 1.331-.046 1.91-1.046 2.926-1.671 1.105-.68 2.545-1.221 5.414-1.578 5.51-.686 10.625-1.725 30.696-1.072s32.568 2.025 37.42 2.971c4.851.947 5.234 3.847 9.846 2.514 1.444-.417 4.609-2.985 4.533-5.168-.076-2.183-1.614-.27-2.042-2.956-.812-5.089 4.077-4.794 5.377-6.781 1.301-1.987 1.898-7.751-2.699-9.45z"/>
  <path fill="#404040" d="M51.269 92.564c2.027 1.962 3.04 4.573 3.04 7.833s-1.007 5.911-3.02 7.952c-2.014 2.041-4.36 3.062-7.041 3.062-2.68 0-5.087-1.166-7.221-3.499v3.181h-4.48v-29.503h4.48v12.048c1.76-2.677 4.067-4.016 6.921-4.016s5.294.981 7.321 2.942zm-12.481 12.943c1.227 1.286 2.72 1.928 4.48 1.928 1.76 0 3.294-.636 4.601-1.909 1.307-1.272 1.96-2.922 1.96-4.95s-.64-3.711-1.92-5.05c-1.28-1.339-2.814-2.008-4.601-2.008s-3.294.669-4.521 2.008c-1.227 1.339-1.84 3.015-1.84 5.03s.613 3.665 1.84 4.95zm37.884 5.587h-4.08v-2.823c-1.76 2.094-4.12 3.141-7.081 3.141-2.214 0-4.047-.623-5.501-1.869-1.454-1.246-2.18-2.909-2.18-4.99 0-2.081.773-3.638 2.32-4.672 1.547-1.034 3.64-1.551 6.281-1.551h5.801v-.795c0-2.81-1.573-4.215-4.721-4.215-1.974 0-4.027.716-6.161 2.147l-2-2.783c2.587-2.041 5.521-3.062 8.801-3.062 2.507 0 4.554.63 6.141 1.889 1.587 1.259 2.38 3.241 2.38 5.944v13.638zm-4.48-7.873v-1.789h-5.041c-3.227 0-4.841 1.007-4.841 3.022 0 1.034.4 1.822 1.2 2.366.8.543 1.914.815 3.34.815 1.427 0 2.674-.398 3.74-1.193 1.067-.795 1.6-1.869 1.6-3.221zm21.882-9.105c-2.214 0-3.88.716-5.001 2.147-1.12 1.431-1.68 3.353-1.68 5.765v9.066h-4.48v-21.153h4.48v4.255c.72-1.325 1.7-2.412 2.94-3.26 1.24-.848 2.554-1.286 3.94-1.312l.04 4.493h-.24zm24.523 8.35h-16.682c.107 1.537.813 2.777 2.12 3.718 1.307.941 2.8 1.412 4.48 1.412 2.667 0 4.694-.835 6.081-2.505l2.56 2.783c-2.294 2.359-5.281 3.539-8.961 3.539-2.987 0-5.527-.987-7.621-2.962-2.094-1.975-3.14-4.626-3.14-7.952 0-3.327 1.067-5.971 3.2-7.933 2.134-1.962 4.647-2.942 7.541-2.942s5.354.868 7.381 2.604c2.027 1.736 3.04 4.129 3.04 7.177v3.062zm-16.682-3.499h12.201c0-1.776-.56-3.141-1.68-4.095-1.12-.954-2.5-1.431-4.14-1.431-1.64 0-3.114.497-4.42 1.491-1.307.994-1.96 2.339-1.96 4.036zm40.324-6.402c2.027 1.962 3.04 4.573 3.04 7.833s-1.007 5.911-3.02 7.952c-2.014 2.041-4.36 3.062-7.041 3.062-2.68 0-5.087-1.166-7.221-3.499v3.181h-4.48v-29.503h4.48v12.048c1.76-2.677 4.067-4.016 6.921-4.016s5.294.981 7.321 2.942zm-12.481 12.943c1.227 1.286 2.72 1.928 4.48 1.928 1.76 0 3.294-.636 4.601-1.909 1.307-1.272 1.96-2.922 1.96-4.95s-.64-3.711-1.92-5.05c-1.28-1.339-2.814-2.008-4.601-2.008s-3.294.669-4.52 2.008c-1.227 1.339-1.84 3.015-1.84 5.03s.613 3.665 1.84 4.95zm30.443 5.905c-3.2 0-5.867-1.054-8.001-3.161-2.134-2.107-3.2-4.685-3.2-7.734 0-3.048 1.067-5.626 3.2-7.734 2.134-2.107 4.801-3.161 8.001-3.161 3.2 0 5.867 1.054 8.001 3.161 2.134 2.107 3.2 4.685 3.2 7.734 0 3.048-1.067 5.626-3.2 7.734-2.134 2.107-4.801 3.161-8.001 3.161zm0-3.976c1.947 0 3.554-.643 4.821-1.928 1.267-1.286 1.9-2.949 1.9-4.99 0-2.041-.633-3.704-1.9-4.99s-2.874-1.928-4.821-1.928c-1.947 0-3.554.643-4.821 1.928-1.267 1.286-1.9 2.949-1.9 4.99 0 2.041.633 3.704 1.9 4.99s2.874 1.928 4.821 1.928zm20.762-7.793v11.451h-4.48v-21.153h4.48v3.857c.72-1.299 1.714-2.319 2.98-3.062 1.267-.742 2.634-1.113 4.1-1.113 2.4 0 4.34.729 5.821 2.187 1.48 1.458 2.22 3.565 2.22 6.322v12.962h-4.48v-11.61c0-3.897-1.627-5.845-4.881-5.845-1.547 0-2.894.51-4.04 1.531-1.147 1.021-1.72 2.512-1.72 4.473zm41.165 2.823h-16.682c.107 1.537.813 2.777 2.12 3.718 1.307.941 2.8 1.412 4.48 1.412 2.667 0 4.694-.835 6.081-2.505l2.56 2.783c-2.294 2.359-5.281 3.539-8.961 3.539-2.987 0-5.527-.987-7.621-2.962-2.094-1.975-3.14-4.626-3.14-7.952 0-3.327 1.067-5.971 3.2-7.933 2.134-1.962 4.647-2.942 7.541-2.942s5.354.868 7.381 2.604c2.027 1.736 3.04 4.129 3.04 7.177v3.062zm-16.682-3.499h12.201c0-1.776-.56-3.141-1.68-4.095-1.12-.954-2.5-1.431-4.14-1.431-1.64 0-3.114.497-4.42 1.491-1.307.994-1.96 2.339-1.96 4.036zm34.564 10.636c-1.467 1.206-3.347 1.809-5.641 1.809-1.547 0-3.154-.278-4.821-.835-1.667-.557-3.14-1.339-4.42-2.346l2.16-3.459c2.48 1.856 4.881 2.783 7.201 2.783 1.013 0 1.814-.232 2.4-.696.587-.464.88-1.054.88-1.769 0-1.06-1.413-2.015-4.24-2.863-.213-.08-.373-.133-.48-.159-4.427-1.193-6.641-3.181-6.641-5.964 0-1.962.767-3.532 2.3-4.712 1.534-1.18 3.527-1.769 5.981-1.769 2.454 0 4.774.716 6.961 2.147l-1.68 3.3c-1.734-1.14-3.614-1.71-5.641-1.71-1.067 0-1.934.192-2.6.577-.667.384-1 .961-1 1.73 0 .689.347 1.193 1.04 1.511.48.239 1.153.464 2.02.676.867.212 1.634.424 2.3.636.667.212 1.313.451 1.94.716.627.265 1.3.636 2.02 1.113 1.44.954 2.16 2.439 2.16 4.453 0 2.015-.733 3.625-2.2 4.831z"/>
</svg>
