<svg xmlns="http://www.w3.org/2000/svg">
  <symbol id="folder" viewBox="0 0 32 32">
    <title>Folder icon</title>
    <path d="M33.554 17q0 .554-.554 1.18l-6 7.07q-.768.91-2.152 1.545t-2.563.634H2.855q-.606 0-1.08-.233t-.472-.768q0-.555.554-1.18l6-7.07q.768-.912 2.152-1.546T12.57 16h19.43q.606 0 1.08.232t.472.768zm-6.125-6.143v2.857H12.57q-1.68 0-3.518.848t-2.93 2.134L.02 23.876q0-.072-.01-.224T0 23.43V6.285q0-1.643 1.18-2.82T4 2.285h5.714q1.643 0 2.82 1.18t1.18 2.82v.57h9.714q1.643 0 2.82 1.18t1.18 2.82z" />
  </symbol>
  <symbol id="file" viewBox="0 0 32 32">
    <title>File icon</title>
    <path d="M26.214 8.5q.25.25.5.643h-8.43V.713q.394.25.644.5zm-8.5 2.93h9.714v18.856q0 .714-.5 1.214t-1.214.5h-24Q1 32 .5 31.5T0 30.286V1.716Q0 1 .5.5T1.714 0H16v9.715q0 .714.5 1.214t1.214.5zm2.857 13.14V23.43q0-.25-.16-.41t-.41-.162H7.427q-.25 0-.41.16t-.162.412v1.143q0 .25.16.412t.412.16h12.57q.25 0 .412-.16t.16-.41zm0-4.57v-1.143q0-.25-.16-.41t-.41-.162H7.427q-.25 0-.41.16t-.162.412V20q0 .25.16.41t.412.162h12.57q.25 0 .412-.16t.16-.412zm0-4.57v-1.144q0-.25-.16-.41t-.41-.162H7.427q-.25 0-.41.16t-.162.412v1.143q0 .25.16.41t.412.16h12.57q.25 0 .412-.16t.16-.41z" />
  </symbol>
</svg>
